<svg width="248" height="58" viewBox="0 0 248 58" fill="#151515" xmlns="http://www.w3.org/2000/svg">
<path d="M0 3.328C2.63467 2.56533 6.032 1.872 10.192 1.248C14.352 0.554668 18.72 0.208 23.296 0.208C27.9413 0.208 31.7893 0.831998 34.84 2.08C37.96 3.25867 40.4213 4.95734 42.224 7.176C44.0267 9.39467 45.3093 12.0293 46.072 15.08C46.8347 18.1307 47.216 21.528 47.216 25.272V56.16H31.72V27.144C31.72 22.152 31.0613 18.616 29.744 16.536C28.4267 14.456 25.9653 13.416 22.36 13.416C21.2507 13.416 20.072 13.4853 18.824 13.624C17.576 13.6933 16.4667 13.7973 15.496 13.936V56.16H0V3.328Z"/>
<path d="M63.8422 29.224C63.8422 24.3707 64.5702 20.1413 66.0262 16.536C67.5515 12.8613 69.5275 9.81067 71.9542 7.384C74.3809 4.95734 77.1542 3.12 80.2742 1.872C83.4635 0.624001 86.7222 0 90.0502 0C97.8155 0 103.952 2.392 108.458 7.176C112.965 11.8907 115.218 18.8587 115.218 28.08C115.218 28.9813 115.184 29.9867 115.114 31.096C115.045 32.136 114.976 33.072 114.906 33.904H79.7542C80.1009 37.0933 81.5915 39.624 84.2262 41.496C86.8609 43.368 90.3969 44.304 94.8342 44.304C97.6769 44.304 100.45 44.0613 103.154 43.576C105.928 43.0213 108.181 42.3627 109.914 41.6L111.994 54.184C111.162 54.6 110.053 55.016 108.666 55.432C107.28 55.848 105.72 56.1947 103.986 56.472C102.322 56.8187 100.52 57.096 98.5782 57.304C96.6369 57.512 94.6955 57.616 92.7542 57.616C87.8315 57.616 83.5329 56.888 79.8582 55.432C76.2529 53.976 73.2369 52 70.8102 49.504C68.4529 46.9387 66.6849 43.9227 65.5062 40.456C64.3969 36.9893 63.8422 33.2453 63.8422 29.224ZM100.242 23.296C100.173 21.9787 99.9302 20.696 99.5142 19.448C99.1675 18.2 98.5782 17.0907 97.7462 16.12C96.9835 15.1493 95.9782 14.352 94.7302 13.728C93.5515 13.104 92.0609 12.792 90.2582 12.792C88.5248 12.792 87.0342 13.104 85.7862 13.728C84.5382 14.2827 83.4982 15.0453 82.6662 16.016C81.8342 16.9867 81.1755 18.1307 80.6902 19.448C80.2742 20.696 79.9622 21.9787 79.7542 23.296H100.242Z"/>
<path d="M179.073 54.288C176.438 55.0507 173.041 55.744 168.881 56.368C164.721 57.0613 160.353 57.408 155.777 57.408C151.131 57.408 147.249 56.784 144.129 55.536C141.078 54.288 138.651 52.5547 136.849 50.336C135.046 48.048 133.763 45.344 133.001 42.224C132.238 39.104 131.857 35.672 131.857 31.928V1.456H147.353V30.056C147.353 35.048 148.011 38.6533 149.329 40.872C150.646 43.0907 153.107 44.2 156.713 44.2C157.822 44.2 159.001 44.1653 160.249 44.096C161.497 43.9573 162.606 43.8187 163.577 43.68V1.456H179.073V54.288Z"/>
<path d="M196.219 29.224C196.219 24.3707 196.947 20.1413 198.403 16.536C199.928 12.8613 201.904 9.81067 204.331 7.384C206.757 4.95734 209.531 3.12 212.651 1.872C215.84 0.624001 219.099 0 222.427 0C230.192 0 236.328 2.392 240.835 7.176C245.341 11.8907 247.595 18.8587 247.595 28.08C247.595 28.9813 247.56 29.9867 247.491 31.096C247.421 32.136 247.352 33.072 247.283 33.904H212.131C212.477 37.0933 213.968 39.624 216.603 41.496C219.237 43.368 222.773 44.304 227.211 44.304C230.053 44.304 232.827 44.0613 235.531 43.576C238.304 43.0213 240.557 42.3627 242.291 41.6L244.371 54.184C243.539 54.6 242.429 55.016 241.043 55.432C239.656 55.848 238.096 56.1947 236.363 56.472C234.699 56.8187 232.896 57.096 230.955 57.304C229.013 57.512 227.072 57.616 225.131 57.616C220.208 57.616 215.909 56.888 212.235 55.432C208.629 53.976 205.613 52 203.187 49.504C200.829 46.9387 199.061 43.9227 197.883 40.456C196.773 36.9893 196.219 33.2453 196.219 29.224ZM232.619 23.296C232.549 21.9787 232.307 20.696 231.891 19.448C231.544 18.2 230.955 17.0907 230.123 16.12C229.36 15.1493 228.355 14.352 227.107 13.728C225.928 13.104 224.437 12.792 222.635 12.792C220.901 12.792 219.411 13.104 218.163 13.728C216.915 14.2827 215.875 15.0453 215.043 16.016C214.211 16.9867 213.552 18.1307 213.067 19.448C212.651 20.696 212.339 21.9787 212.131 23.296H232.619Z"/>
</svg>
